<mxfile host="app.diagrams.net" modified="2024-01-27T12:23:29.289Z" agent="Mozilla/5.0 (Macintosh; Intel Mac OS X 10_15_7) AppleWebKit/537.36 (KHTML, like Gecko) Chrome/120.0.0.0 Safari/537.36" etag="nMg1uiDK-liDuluVDnsO" version="22.1.21" type="github">
  <diagram name="第 1 页" id="Yt1nz3dmHpXinBOjk6fl">
    <mxGraphModel dx="1562" dy="858" grid="1" gridSize="10" guides="1" tooltips="1" connect="1" arrows="1" fold="1" page="1" pageScale="1" pageWidth="827" pageHeight="1169" math="1" shadow="0">
      <root>
        <mxCell id="0" />
        <mxCell id="1" parent="0" />
        <mxCell id="eBhoGwzSmf9ADL36WI5P-15" value="" style="edgeStyle=orthogonalEdgeStyle;rounded=0;orthogonalLoop=1;jettySize=auto;html=1;shadow=1;" edge="1" parent="1" source="eBhoGwzSmf9ADL36WI5P-6" target="eBhoGwzSmf9ADL36WI5P-10">
          <mxGeometry relative="1" as="geometry" />
        </mxCell>
        <mxCell id="eBhoGwzSmf9ADL36WI5P-6" value="日志数据集" style="shape=cylinder3;whiteSpace=wrap;html=1;boundedLbl=1;backgroundOutline=1;size=15;shadow=1;" vertex="1" parent="1">
          <mxGeometry x="110" y="545" width="110" height="70" as="geometry" />
        </mxCell>
        <mxCell id="eBhoGwzSmf9ADL36WI5P-20" value="" style="edgeStyle=orthogonalEdgeStyle;rounded=0;orthogonalLoop=1;jettySize=auto;html=1;shadow=1;" edge="1" parent="1" source="eBhoGwzSmf9ADL36WI5P-9" target="eBhoGwzSmf9ADL36WI5P-19">
          <mxGeometry relative="1" as="geometry" />
        </mxCell>
        <mxCell id="eBhoGwzSmf9ADL36WI5P-26" value="" style="edgeStyle=orthogonalEdgeStyle;rounded=0;orthogonalLoop=1;jettySize=auto;html=1;shadow=1;" edge="1" parent="1" source="eBhoGwzSmf9ADL36WI5P-9" target="eBhoGwzSmf9ADL36WI5P-25">
          <mxGeometry relative="1" as="geometry" />
        </mxCell>
        <mxCell id="eBhoGwzSmf9ADL36WI5P-9" value="分类器C是否已达到迭代阈值" style="rhombus;whiteSpace=wrap;html=1;shadow=1;" vertex="1" parent="1">
          <mxGeometry x="590" y="539.5" width="220" height="80" as="geometry" />
        </mxCell>
        <mxCell id="eBhoGwzSmf9ADL36WI5P-16" value="" style="edgeStyle=orthogonalEdgeStyle;rounded=0;orthogonalLoop=1;jettySize=auto;html=1;shadow=1;" edge="1" parent="1" source="eBhoGwzSmf9ADL36WI5P-10" target="eBhoGwzSmf9ADL36WI5P-11">
          <mxGeometry relative="1" as="geometry" />
        </mxCell>
        <mxCell id="eBhoGwzSmf9ADL36WI5P-10" value="数据预处理" style="ellipse;whiteSpace=wrap;html=1;shadow=1;" vertex="1" parent="1">
          <mxGeometry x="265" y="547" width="115" height="65" as="geometry" />
        </mxCell>
        <mxCell id="eBhoGwzSmf9ADL36WI5P-17" value="" style="edgeStyle=orthogonalEdgeStyle;rounded=0;orthogonalLoop=1;jettySize=auto;html=1;shadow=1;" edge="1" parent="1" source="eBhoGwzSmf9ADL36WI5P-11" target="eBhoGwzSmf9ADL36WI5P-9">
          <mxGeometry relative="1" as="geometry" />
        </mxCell>
        <mxCell id="eBhoGwzSmf9ADL36WI5P-11" value="训练分类器C" style="ellipse;whiteSpace=wrap;html=1;shadow=1;" vertex="1" parent="1">
          <mxGeometry x="427.5" y="547" width="115" height="65" as="geometry" />
        </mxCell>
        <mxCell id="eBhoGwzSmf9ADL36WI5P-23" value="" style="edgeStyle=orthogonalEdgeStyle;rounded=0;orthogonalLoop=1;jettySize=auto;html=1;shadow=1;" edge="1" parent="1" source="eBhoGwzSmf9ADL36WI5P-13" target="eBhoGwzSmf9ADL36WI5P-11">
          <mxGeometry relative="1" as="geometry" />
        </mxCell>
        <mxCell id="eBhoGwzSmf9ADL36WI5P-13" value="标记数据集L" style="shape=cylinder3;whiteSpace=wrap;html=1;boundedLbl=1;backgroundOutline=1;size=15;shadow=1;" vertex="1" parent="1">
          <mxGeometry x="430" y="660" width="110" height="70" as="geometry" />
        </mxCell>
        <mxCell id="eBhoGwzSmf9ADL36WI5P-24" value="" style="edgeStyle=orthogonalEdgeStyle;rounded=0;orthogonalLoop=1;jettySize=auto;html=1;shadow=1;" edge="1" parent="1" source="eBhoGwzSmf9ADL36WI5P-14" target="eBhoGwzSmf9ADL36WI5P-19">
          <mxGeometry relative="1" as="geometry" />
        </mxCell>
        <mxCell id="eBhoGwzSmf9ADL36WI5P-14" value="未标记数据集U" style="shape=cylinder3;whiteSpace=wrap;html=1;boundedLbl=1;backgroundOutline=1;size=15;shadow=1;" vertex="1" parent="1">
          <mxGeometry x="430" y="430" width="110" height="70" as="geometry" />
        </mxCell>
        <mxCell id="eBhoGwzSmf9ADL36WI5P-19" value="预测标签" style="ellipse;whiteSpace=wrap;html=1;shadow=1;" vertex="1" parent="1">
          <mxGeometry x="642.5" y="432.5" width="115" height="65" as="geometry" />
        </mxCell>
        <mxCell id="eBhoGwzSmf9ADL36WI5P-21" style="edgeStyle=orthogonalEdgeStyle;rounded=0;orthogonalLoop=1;jettySize=auto;html=1;exitX=0.5;exitY=0;exitDx=0;exitDy=0;entryX=0;entryY=0.5;entryDx=0;entryDy=0;entryPerimeter=0;shadow=1;" edge="1" parent="1" source="eBhoGwzSmf9ADL36WI5P-10" target="eBhoGwzSmf9ADL36WI5P-14">
          <mxGeometry relative="1" as="geometry" />
        </mxCell>
        <mxCell id="eBhoGwzSmf9ADL36WI5P-22" style="edgeStyle=orthogonalEdgeStyle;rounded=0;orthogonalLoop=1;jettySize=auto;html=1;exitX=0.5;exitY=1;exitDx=0;exitDy=0;entryX=0;entryY=0.5;entryDx=0;entryDy=0;entryPerimeter=0;shadow=1;" edge="1" parent="1" source="eBhoGwzSmf9ADL36WI5P-10" target="eBhoGwzSmf9ADL36WI5P-13">
          <mxGeometry relative="1" as="geometry" />
        </mxCell>
        <mxCell id="eBhoGwzSmf9ADL36WI5P-25" value="最佳分类器" style="rounded=0;whiteSpace=wrap;html=1;shadow=1;" vertex="1" parent="1">
          <mxGeometry x="860" y="549.5" width="120" height="60" as="geometry" />
        </mxCell>
        <mxCell id="eBhoGwzSmf9ADL36WI5P-27" style="edgeStyle=orthogonalEdgeStyle;rounded=0;orthogonalLoop=1;jettySize=auto;html=1;exitX=1;exitY=0.5;exitDx=0;exitDy=0;entryX=1;entryY=0.5;entryDx=0;entryDy=0;entryPerimeter=0;shadow=1;" edge="1" parent="1" source="eBhoGwzSmf9ADL36WI5P-19" target="eBhoGwzSmf9ADL36WI5P-13">
          <mxGeometry relative="1" as="geometry">
            <Array as="points">
              <mxPoint x="1010" y="465" />
              <mxPoint x="1010" y="695" />
            </Array>
          </mxGeometry>
        </mxCell>
        <mxCell id="eBhoGwzSmf9ADL36WI5P-28" value="高置信度预测" style="text;html=1;strokeColor=none;fillColor=none;align=center;verticalAlign=middle;whiteSpace=wrap;rounded=0;shadow=1;" vertex="1" parent="1">
          <mxGeometry x="840" y="440" width="90" height="30" as="geometry" />
        </mxCell>
        <mxCell id="eBhoGwzSmf9ADL36WI5P-29" value="No" style="text;html=1;strokeColor=none;fillColor=none;align=center;verticalAlign=middle;whiteSpace=wrap;rounded=0;shadow=1;" vertex="1" parent="1">
          <mxGeometry x="682" y="509.5" width="60" height="30" as="geometry" />
        </mxCell>
        <mxCell id="eBhoGwzSmf9ADL36WI5P-30" value="Yes" style="text;html=1;strokeColor=none;fillColor=none;align=center;verticalAlign=middle;whiteSpace=wrap;rounded=0;shadow=1;" vertex="1" parent="1">
          <mxGeometry x="800" y="555" width="60" height="30" as="geometry" />
        </mxCell>
      </root>
    </mxGraphModel>
  </diagram>
</mxfile>
